<?xml version="1.0" encoding="UTF-8"?>
<svg xmlns="http://www.w3.org/2000/svg" viewBox="0 0 115.9 222.49">
  <defs>
    <style>
      .cls-1 {
        isolation: isolate;
      }

      .cls-2 {
        mix-blend-mode: multiply;
      }

      .cls-2, .cls-3 {
        fill: #8cb347;
      }

      .cls-4 {
        fill: #603e2a;
      }
    </style>
  </defs>
  <g class="cls-1">
    <g id="Calque_2" data-name="Calque 2">
      <g id="OBJECTS">
        <g>
          <g>
            <path class="cls-3" d="M106.21,111.34c-.09-.13-.18-.25-.27-.37,2.51-6.81,3.59-14.15,3.03-21.45-.81-10.51-4.98-20.57-11.69-28.61,3.35-6.77,4.9-14.41,4.31-22.01-.83-10.89-6.01-21.2-14.2-28.41-3.02-2.03-6.05-4.06-9.07-6.09C71.38.99,64.05-.43,56.34.11c-3.56.75-7.13,1.5-10.69,2.25-6.93,2.47-12.84,6.45-17.72,11.95-7.45,8.46-11.23,19.81-10.36,31.06.37,4.8,1.58,9.48,3.52,13.84-.23.25-.48.49-.71.75-8.96,10.18-13.5,23.83-12.46,37.35.36,4.69,1.4,9.28,3.02,13.65-1.51,2.2-2.88,4.51-4.1,6.96-.5,1.03-.97,2.07-1.41,3.11-3.99,8.26-6.18,20.46-5.18,29.21.82,10.03,4.03,19.23,9.63,27.59,8.45,12.52,21.68,21.29,36.52,24.17,14.84,2.88,30.39-.28,42.91-8.73,4.53-3.05,8.57-6.75,12.02-10.92.02-.02.05-.04.07-.07,6.67-6.48,11.91-18.86,13.6-27.73.3-5.14.6-10.29.9-15.43-.82-10.1-4.06-19.36-9.69-27.78Z"/>
            <path class="cls-2" d="M21.4,152.67c0-9.55,2.7-18.56,7.35-26.31-2.74-6.3-4.27-13.2-4.27-20.42,0-16,7.51-30.51,19.14-40.15-2.7-6.25-4.21-13.1-4.21-20.25,0-19.08,10.71-36.02,26.34-45.09C62.67,0,59.54-.11,56.34.11c-3.56.75-7.13,1.5-10.69,2.25-6.93,2.47-12.84,6.45-17.72,11.95-7.45,8.46-11.23,19.81-10.36,31.06.37,4.8,1.58,9.48,3.52,13.84-.23.25-.48.49-.71.75-8.96,10.18-13.5,23.83-12.46,37.35.36,4.69,1.4,9.28,3.02,13.65-1.51,2.2-2.88,4.51-4.1,6.96-.5,1.03-.97,2.07-1.41,3.11-3.99,8.26-6.18,20.46-5.18,29.21.82,10.03,4.03,19.23,9.63,27.59,8.45,12.52,21.68,21.29,36.52,24.17,4.73.92,9.52,1.22,14.27.93-22.35-5.75-39.26-26.33-39.26-50.26Z"/>
          </g>
          <g>
            <polygon class="cls-4" points="45.98 222.49 55.98 122.49 59.98 122.49 69.98 222.49 45.98 222.49"/>
            <g>
              <line class="cls-3" x1="59.56" y1="157.44" x2="75.27" y2="141.72"/>
              <polygon class="cls-4" points="56.02 153.91 74.69 141.14 75.86 142.31 63.09 160.98 56.02 153.91"/>
            </g>
            <g>
              <line class="cls-3" x1="59.56" y1="179.44" x2="43.84" y2="163.72"/>
              <polygon class="cls-4" points="56.02 182.98 43.25 164.31 44.43 163.14 63.09 175.91 56.02 182.98"/>
            </g>
          </g>
        </g>
      </g>
    </g>
  </g>
</svg>